<svg width="21" height="21" viewBox="0 0 21 21" fill="none" xmlns="http://www.w3.org/2000/svg">
<path d="M11.5002 8.00001C11.5002 6.35001 10.1502 5.00001 8.50023 5.00001C6.85023 5.00001 5.50023 6.35001 5.50023 8.00001C5.50023 9.65001 6.85023 11 8.50023 11C10.1502 11 11.5002 9.65001 11.5002 8.00001ZM8.50023 9.00001C7.95023 9.00001 7.50023 8.55001 7.50023 8.00001C7.50023 7.45001 7.95023 7.00001 8.50023 7.00001C9.05023 7.00001 9.50023 7.45001 9.50023 8.00001C9.50023 8.55001 9.05023 9.00001 8.50023 9.00001ZM15.0002 11C16.1102 11 17.0002 10.11 17.0002 9.00001C17.0002 7.89001 16.1102 7.00001 15.0002 7.00001C13.8902 7.00001 12.9902 7.89001 13.0002 9.00001C13.0002 10.11 13.8902 11 15.0002 11ZM10.9902 0.0100098C5.47023 0.0100098 0.990234 4.49001 0.990234 10.01C0.990234 15.53 5.47023 20.01 10.9902 20.01C16.5102 20.01 20.9902 15.53 20.9902 10.01C20.9902 4.49001 16.5102 0.0100098 10.9902 0.0100098ZM4.84023 15.12C5.52023 14.58 7.11023 14.01 8.50023 14.01C8.57023 14.01 8.65023 14.02 8.73023 14.02C8.97023 13.38 9.40023 12.73 10.0302 12.16C9.47023 12.06 8.94023 12 8.50023 12C7.20023 12 5.11023 12.45 3.77023 13.43C3.27023 12.39 2.99023 11.23 2.99023 10C2.99023 5.59001 6.58023 2.00001 10.9902 2.00001C15.4002 2.00001 18.9902 5.59001 18.9902 10C18.9902 11.2 18.7202 12.34 18.2402 13.37C17.2402 12.78 15.8802 12.5 15.0002 12.5C13.4802 12.5 10.5002 13.31 10.5002 15.2V17.98C8.23023 17.85 6.21023 16.77 4.84023 15.12Z" fill="#95999C"/>
</svg>
